<mxfile host="65bd71144e">
    <diagram id="HIP3nbAZw_EuaXWnEj3U" name="Page-1">
        <mxGraphModel dx="1821" dy="945" grid="1" gridSize="10" guides="1" tooltips="1" connect="1" arrows="1" fold="1" page="1" pageScale="1" pageWidth="850" pageHeight="1100" math="0" shadow="0">
            <root>
                <mxCell id="0"/>
                <mxCell id="1" parent="0"/>
                <mxCell id="7" value="http://ics2o.mths.ca" style="swimlane;whiteSpace=wrap;html=1;" parent="1" vertex="1">
                    <mxGeometry x="-180" y="30" width="930" height="538" as="geometry"/>
                </mxCell>
                <mxCell id="8" value="Simplified Long Division" style="text;html=1;align=center;verticalAlign=middle;resizable=0;points=[];autosize=1;strokeColor=none;fillColor=none;fontSize=19;" vertex="1" parent="7">
                    <mxGeometry x="265" y="25" width="230" height="40" as="geometry"/>
                </mxCell>
                <mxCell id="9" value="&lt;div&gt;&lt;font color=&quot;#000000&quot;&gt;&lt;span&gt;Enter two positive numbers for division&lt;/span&gt;&lt;/font&gt;&lt;/div&gt;" style="text;html=1;align=center;verticalAlign=middle;resizable=0;points=[];autosize=1;strokeColor=none;fillColor=none;fontSize=17;" vertex="1" parent="7">
                    <mxGeometry y="58" width="310" height="30" as="geometry"/>
                </mxCell>
                <mxCell id="11" value="Enter divisor" style="text;html=1;align=center;verticalAlign=middle;resizable=0;points=[];autosize=1;strokeColor=none;fillColor=none;fontSize=15;" vertex="1" parent="7">
                    <mxGeometry x="-10" y="160" width="110" height="30" as="geometry"/>
                </mxCell>
                <mxCell id="12" value="13" style="whiteSpace=wrap;html=1;" vertex="1" parent="7">
                    <mxGeometry x="120" y="110" width="65" height="30" as="geometry"/>
                </mxCell>
                <mxCell id="14" value="6" style="whiteSpace=wrap;html=1;" vertex="1" parent="7">
                    <mxGeometry x="110" y="160" width="65" height="30" as="geometry"/>
                </mxCell>
                <mxCell id="15" value="&lt;font color=&quot;#000000&quot;&gt;&lt;span style=&quot;font-size: 12px;&quot;&gt;Do Long Division&lt;/span&gt;&lt;/font&gt;" style="whiteSpace=wrap;html=1;" vertex="1" parent="7">
                    <mxGeometry x="10" y="200" width="110" height="30" as="geometry"/>
                </mxCell>
                <mxCell id="16" value="&lt;div&gt;&lt;span style=&quot;color: rgb(63, 63, 63); background-color: transparent;&quot;&gt;Result: Quotient = 2, Remainder = 1&lt;/span&gt;&lt;/div&gt;" style="text;html=1;align=center;verticalAlign=middle;resizable=0;points=[];autosize=1;strokeColor=none;fillColor=none;fontSize=12;" vertex="1" parent="7">
                    <mxGeometry y="290" width="220" height="30" as="geometry"/>
                </mxCell>
                <mxCell id="17" value="&lt;div&gt;&lt;font color=&quot;#000000&quot;&gt;&lt;span style=&quot;font-size: 12px;&quot;&gt;Steps:&lt;/span&gt;&lt;/font&gt;&lt;/div&gt;&lt;div&gt;&lt;font color=&quot;#000000&quot;&gt;&lt;span style=&quot;font-size: 12px;&quot;&gt;13 - 6 = 7&lt;/span&gt;&lt;/font&gt;&lt;/div&gt;&lt;div&gt;&lt;font color=&quot;#000000&quot;&gt;&lt;span style=&quot;font-size: 12px;&quot;&gt;7 - 6 = 1&lt;/span&gt;&lt;/font&gt;&lt;/div&gt;" style="text;html=1;align=center;verticalAlign=middle;resizable=0;points=[];autosize=1;strokeColor=none;fillColor=none;" vertex="1" parent="7">
                    <mxGeometry y="230" width="70" height="60" as="geometry"/>
                </mxCell>
                <mxCell id="18" value="" style="shape=image;verticalLabelPosition=bottom;labelBackgroundColor=default;verticalAlign=top;aspect=fixed;imageAspect=0;image=data:image/webp,UklGRuhKAABXRUJQVlA4INxKAAAQdAGdASq6AxACPm02lkikIqUhIfLacKANiWlu/HyZqMm+F2vlTdBP+df7J+RHmd/Tv63/e/2D/wHpH+M/Kf17+v/4D/Qf3L9uPhM/nPFv0R/tf8d6kfxv7E/gv7l/jf+R/h/nZ+pf4z+xftj5s/A394/Ln/F/IL+Nfyf+3/27/Cf53++/vR7pOxX3v/R/8P1AvWj6R/q/7v/kv/V/pfgg+C/5H+R9Tv0D/F/7f/EfkV9gP8p/sH+3/wXuL/1/Ba9a/af4A/6//nv/p7MX9l/5/9F/r/3D96n03/3/81/r/2q+xb+d/23/c/4j8ihqdJY2pye30/65+O630Xfbrn8qFwocLG1D+M/D+vA7ChwsbU5Pb6f82iQlKZQ6Ei/lt8RUz9Q+gFRFE6BjVSCs5/Khb+uBJVjH91mnt+73NzzI3ByKzhNd2gVDobthWH7KhcJaeWP82HqQwX6SBrlKjlAK9XMnmDTLU2QIp5ESuNqcnt85HX257or0EQLPzcLV1K40RjhNUREGGwumtfvJ13prSm0icCeu4xiUQY9raxXTyVol28Kv1z1jsUOfQfC7gD0zLiqOLs35O65U6B9Ir29LOEn8wZXJv2HAo9q3HnV+hifeoAeBejK1aydKmkuQcXZCh8jucQIZ0MsSm+s05jAEEoqCCM/n5f0RCbICNbrd9EUmorJbynCfhk6YAAK4A/vP5n39KSw6qamNpV2clJkItHPUUiYoLDV7F8IxBKvgo7Q6Qmu6PrssQDegwjukQC48VRSTBj7v9rlFZnkGhh4GJhWG7ZyGrUFVvzxDiMULK2cun9v8WduGZDz5zZ5U1LrrKT132erqrFFOuguElRSL3A2Tk1ToGr2EHl9AXU2lJtnGk2cbG5/83KE9lDOHZxHfQVqN/KlRCqVWGLdGYIsoetQ3iI8lVWFluVXg+lDo0tDtWa5xPnT/rn8qFmlA5HJCxJGOeKw66o+30/61CbtBD230Ddzp/1zna4VQ9HqMHDtye30/65+K/PDGKHcyRMrpJgCMce1K5j0IugEfRzONWIOEhKh/8l1fTnIDKe30/5iqkziNnJhbGCXtcXDL+Ic6ains9mDb6f87LdqZ0Jw4BmaLjuQ2EU2PTEIxa6AIwcaJpJlkro3rn8qBmFXoCcRt187KEJ1Vl2dKGvEoiU3EkAOlGHEvkL42zQqAWTA7xw/qrIhEEdYoIOVcnAuiFxwMJ2spCX5HB6nXkEYvFgGQ/XEfBjZ2qY6e5IUpQr/4o3lFN1Jg7xr4U/BPOR1GowPZRJTAJXmM2lCjpX/8Telsq21DFH08IqpOWMG/T9zUyC5jdtF2XNR/dMiipMD1ZFn08MUtGsuFcusPDVOZqGvvNKnVjuukNp1X+0tqOsZ4lH805/ztxeMwIuK3ZQWzNX+RjMeR6DDvXT9xBx3KpgipU1LZs0I48S1ksdH5ElhVXn/QCJFwszJeA2+j4hluCX8Vb9mSzfqSRqUxpBf3ClTcuQuvyHZ4eVO5QCYeBNidnFqj6m4a/aKWGXUkbsYUxK2IrbsXSXPTyut3SfDpI2FC1O8cstzWWc+b/2fD3apg4jBZHz7AuXKBwoSG+1VaTH65v+W+VsGhsRZkXEXeu8MFh2yVjODHgbTelQt/P3JEgouf46Gh6w5FQX20FE56GQjdoHCvOw2PIb0lwvKGzA0ogz2nQp/kfRVTb5+hZVIZwndfYn0FH1Z9ak1kOqmSzXMo1LNMBPyOGxFWiLhYx2TBR35wE0tZS1fmUIXTyTLimGpBfstqWposIPGluJip/zOhEz7nAUcLeFUNLUkpU6rSw7ChwsX55dhjqe8w+VW6z0iTmIw46CLt2OaEzY3zmSRrhQi17amzvsj5RkcCjAJIFgYGv0jV1ARkSWQjO2PHJPabgtYr9whPXS+BskM9IbgGmIkfBLqCbfWuEixXEybu7JiVpvzLWC1NN/EhkhJLsBn/XP5SDVwRaAO7uv8Fg9Zp0OFec0nIZO3eMISSHyeodnly77fhlFQTHUDe91aS2AAfLsP/iL+QP9QnQp/KhYdpKb1F7Os6vm2zjr+rSAxcJ7fQNK5/F6DTehCZAPAE8qFk9QdhSZo9ZU38Qe1TL31aUvYkCirPvZMX0fb6f9c6z3bhtFFR68upEr9l7PNchtzSaxZrueWf3rD1z8tB2FB6iVy6FEQqNPDaQ1Vb0syGWqanm0hq1CTOkIRR5U4Nvo8rNhstE+FWawwejNa6QtrzKu4zGsROdpfbnsCvlQuFDg/7n7W0wXxc08DEsSQY2puGG307dE8dIjlqifFYzcqzPP6m4br+TsXvu/0l069WeFcALHaO+Fm3qcnt9OuUgrfGFVj0SlAXYu4jJKmOoLBocK4S2bp9i/iJ1Z7VDlSNKqRhLUnBTmoD1B2Ewb6Jym4qRopT97q3+0ugLC644UOFjZyMxc89zbMrKmD6TbVh7SV97ZQTaOffKhZOxwsYcQisPMuMHTuZGuWjg9PIDGW80gDfCkDcEEILcWUGsCY9N9vjLAgCxhrjriJy/k8dqcKA3K0pBXABEegd8qRP7EBZPRMaPk+rec0nJ7fTq3KVw3UhDXKXqTDB1MdQWDQ4PCRrce2LliEk4cNR91EAH9dGC+ubF7dYxcZaT7v7WGnI6IVbJgo+n/XY2CgtB8KQYS0CLM7eOoLBocLJ7nTYt7V35LMsIJXPy1TfyoXAEetGGH5ea3Gm8ThxBCPTk9vp/1zYfWWW09TYmiAfyj1LPx6MrxF7aio+30/61yZmpcQW1OcUWxQ+KgYOjfHPx05HB6nt9P6VQ7yx0oOHSOdwXeuFOYHOxag1rqYZRQ+B2YxsfT/rn8o+W/OBgVaEenQhtG1FR9vp/1rmDOwUfaLDwJG19CaMF9c/lIRm3H+/eeUnAPCpuONNtvCn8qFwocL6BScnt5UJ0KfyoXChwsY7lo2pydYSS0+AjaVXIECYA5wbG7guFDhY2pye30/65+Wg7Chsp8gPkzpZupoTj5E4ypFiXCxjuWjanJ2FitIqINl1owcrMBZ1O22ox8xFpnTL5KdCn8qFwocLG1OTuxp/1qWEe04YFl1zRWf8lZ45WM41GYnZyjhYx3LRtTk6/0JObh6d3dWj35aqKHCxtTk9vp/1z+OuOFDfCR3fdjDapzkMxXgK9IVvmjKtr5DPHpidhQ3B9GksbU56x3gVxT+5c/lQuFDhY2pye30DSufy2fifoFJyd2ZU9vp/1z+NWKnIm7Y2dv5PAo2O/qch06fmdviTzPdmsCUrVtTKKVR1TYwCWNjoiTwX5E68qcLX0DEJvNUCj51pVk+ntXTJXrQKwUXjG0BLjHtUf+UANLHlzZXiQ1SaBiumUy6IPer7U7zRd1iihzImN9/NEmCo8rBxd9Wmji/C7xwoxpsqRkH158XZd8wkrKq8Q2tSARxTiDuheVwzJyXiOdMgiP6K2kASUGeyt/EmE5l8KKExMB67Xd9L91g8jmEfZIaXFCeW7nMZTUOmtzh1Nx9Z6OJX5aFh4wJiHonPGScL6AOQhXRcu9xbAYwRf9qa1g1oYrKYZlSCm3LYKnIn3Be04TEIlO/9O4SaHC2WZXfLwLB/Ctn3gLiIH8m922P0sn9waQqASGR2O15Z2eO7S9N77nEa9GCbDgTphzXpcBya1CcoGPtcJ7LIWvoKE1/rO4lBE4qBRNNUcWb+avmW24tBIwtgjxWdeBPdxFOg9vGSkXRDvFqC8kl49ANAYWpDzDXzYTxE5wABCvjXERd4YNzdDwdGe8lxTrGm3zt6yTcBNxEjXE3f2X4CrRq5G69d8smvV0yU7j+ypQjgTXqHuHXYO9Y1wRZVH3RKvwPZyRH0/65/KhdbUOFjanI4DP+uf4JLhQ4V529cbU5Pb6f9c/lQuFDhY2pye30/sjfyoXChwsbU5HB6nt9P+ufyoXChwsbU5Pb6f9c/lIaQr9Tk9vp/1z+VAvkbVR9vp/1z+VC4UFgA/v1/IxmMg4W7TJK38H2qsHADnW8V+8rB4EtaKvCOUAc+ELmnI7c+5rIQUUP4/8A8m3eX3jVQJNxXW59ZyarhpREJH9o8o7K2xOeRY6+kPrTnmnMON38B/b3fpDpOC8B5w8z65mFHpTbLAY70khep07+bZf9xfhafQYaH6ekcoBHib1GHJ0Gd+HeHCIG6XUMd4+kK9NfNtbUAJq9KSs/tATp1Tl3i01xV4uW+7mG2l/Q0Y75rd9Qu1hRSRKbhFhqoTD4nDemfYclTLu/mGHiQpp2kH6JQF37OhJhmwWa1WSgwuXY13iCK4arQ3rx2oKF/PvjvF+q8AYWOMba0a0eG/8bQocsRNZDtZHab0HriVrT0RQxFdHUdv7ap/nhcG/+ZqjlIWpzAX9B+2FCCtHdORqceaCAPZlSU07qDEaWXw/2zrMnlzCXm8H50d8hv+5no3fAHUbcbjuBaMj1+h0qG7ZLjbmzMFy4dC3/1OpYBGlit4aQz2srjFaTqc9oSv+LAc2UWxSuqz0No1fjWfZbmM84bhcKC1B5KBoaahfQs0LbT3isSR4LVb5DeBrDBUMWHiLXP5IqWooXlXzepsR2fRx5sJaP2TbZ4lUVWSpTCRHsJqbs3s8ah/4z8+u+2OkS8e0WIdN7bVYJoXBpoOJbEoGxiWmPrSntlBC7PbK2nUglXe6IW5LaLStXZnokw1yPmYwtQN0y79m8EcweLrhkXe1VryKaZeb9jiJY8EGe8DwlPusTtQTKGu/LYTHQ4FIxCzQkk+e7U7XIsk98QeqpKn/vSNVluACkpSfh32iKTKbt/X4HIKkQQWgBF0nePTjosB7lTOFtsHVhwGu9lLoKhu0DxGkXM8BOflG45QBo6D04jDk+dYdABps44br9l5JvwkPbv3EYzvwIEbb0ZZySUZAa/as8UHUOQdl2kzU+R3F8q6NC0BYTq+5z5YYqBcB4GXEMQQF2IAuL6JEMGJqc7BskCgfkE4DVgTWzl8uN4c9E1REUuMbfWHbr19Qf2P3mcvhmL4H8C/j9hqjr9Ez1lZaY731WzQVhbhbudBVdIN2NQWGO0wvieLzaHermbb0rEaQTE3z5MVfH5PtoELlDyvMXTSFPxAcstWqSpLQ0LBgUSKC3cO1SJHwL4QqB+Z5vlT828RDa16CNryZKcbknoGWIUuohgh4ZuzxiEKvgart/mhaqHVuMXFX524guc1rOCiRBVJvVVYO8qnS9vdZ4txjieItuQHa9ul2291loLjEMo5TXBnZxivkwnk0y3wH1z8lN6QVzx2qlad2iQq7bG6JrVt7CqFB8t8RVlhijuE8SvNSBZCTQnmihnizO+sIDWMvNNULnql1LUaF6arnlFMMfk+3aHTciml5oB7k/stbA/QhaleQSuMXinJ/QEIxZYoHy7Aoaf7FsLB3k4Pcui912+YXJA0g+cjcqoWRLjPmXhs/XqnUeC2yUoPLyWDm8GNQIfCCEVxvUXi/29QptC2W4/u26qaVOcFwNwbAeuzyX+oz27MAYMda98LoNcZX2EjBasq5ZDK63ctv02ZWQouCE234WJSgvYQcsX7hyCzjgDuJU5UDtzuyx/RtenlWqRv//X+bOE5lVZkOJ74VOXMT5yeRUNSM4YL2PIJPPYzFS8K9tjL2bsp3LV/W3jSMwZN1GHDimP3GKbHAc2l4OpTys1WGdaDwiNlM+c3S3HrmzydNrI2tdNd1SRa6DRiVvzvknjdEPex49akT3h/xIFsPmwc7tZ52gg196Qn4kDcrXmdzgnPlyzA7YY8OTXuPQeQ+a7ZLVQPdMXl3FQXa4gy+ck6+SDsaZUY6i5CY0e7NCh2xLF03Sy5xwkOW8gdSAW4eON6wWe8GQPMKpQxD7QVHMWiwUx61Ke+RurwrJNnb5B0OVpwDz6s/afxdUTal0lNrom5tbdp2UiNfU2lbH+ANYcEu8XmunfZns3q6oV0DfBZorJHM8JRZ3NhnUul7FXLzz3s0NEGRSvvtmZWdGLh0JtkLHACTB4oMwQhKezWM/p5qTvmywjlfsnDPB2skfWqGovcqx2DPKHkxrYDFkWmI+P0AWaWH5TRaAKDplt9PeKn9X5ST0XdwGEKyw9MxLunbzgJOmlFAJP5eDCnG23jxvgknbN8QAYmjckxHZIGOEVKxvO7LgnbS9lxIVkz6dR1jxmGD42WgJUd1436jrODVHDqDdTaAFC/UCMSJjPN68S477cW1gLQknIRz3eCZ6hoOJ91uq6p5SmMWrJ3S9tfpT6fwRUl2/DsAcAcgLYboD48+mslZwX80VFEeRw7ieNuPDNYOfO92gCAOckQEdJl21Gp/487ybBwisI1S3QMaMk7N9zwRJbAitbOZ/h7zQ7eVCiBlsbwB/G/6yr1h7bDaZGLuetUs014AvgbeHvQHhxVc0bmbLy8Aa/uZMti5VfEDUwVU/lfRwAVg5JFbzPTmlApISc9eSq4ZUY1MYNz7fo4f3GkXtOeJ/l66GlGjWn5Iz8TgWKT7G7214sM9nOD2C8SfWIQaEkpDs89aZrsawmzzr5MlPqc9r6Vvz1TMgXZellWkBvYXykqD2MNxxM/eyXz3Be352N7IScj0GDa4E0Uewt5lfD7WaxnvolK5QlvsHFK2ulAO+jsvO1Ge26g5jMLVtUe+sHQTzV6H8nx3yltoPcfqtSYF2QTr4fAEZ7j0zfm3dSr8RVMRJOLatc2sePalYGDzGMf9E6Yi0sdLK56Pwp69XHd7XrLOLVWaFGnA6JRXKZTf3pB9NBpS/8z3gBoNV4+8B6TWrejEqV4+STBfY4ydfnY01a3tTfbrpixzv56WWp/eknbeFnD/nO+J5vfTw+F0CUQUL4wXEXnERE705cV7aDS5ARgOZ08lDao5mJaollf12dxqL6l9GzEea2Zbd5vgLvNlVPbQiWNNGpHRrEYkKRG2S/AtwpJNrshW4PAfuw4dKTO2mOV6zRWKXhCW6V4i5Pm0MfVxNkD0WTdhW6+Va51azJfS/vuix18cwBzacAGrqrmu/FNc6smGEfur5XufNNtI61+2ncJD8yNq4eA6IMKPb30oUfOxk95fwU4vA008o8d9FpiGc64BqRq3bmcvqDhiAQ9ZdjygCUsIXZiuvlhZifxVIgxsWhlU1kgknOkexqKn3SgL2Dq3HU6pKlikcMubAFnSUx9zz4MQXFjromeQgXNJyToSY6wkBgxmXatllob4ELLOZKaWqQVn1KjnRL+jpELfzGPXTaHkRNNobL+5SjWRl4cIptWBCw+xFFXVdygj/2mnV63LyUg8VPSuJoMjYpv0F2SnWhwu9GijObfrvuiP40PKk8B6fZxzWTic1oz8Mw/dXKMLnW+iPidceA7FAZIEs4NeNWOQN3PtqUGdMDqbK6XlMVrm0//Ha5371Isxr4SB4V5ioIsktuhUbf//p55TQuaABtXuHdEo1UU2jDxguVZUP0/Y0U9Lu/m0DBhjvxzRLmHb5zp6aSi/bWQkLVs/tG6Ji8+NAYb4xSL1hS3YA7qA3HTzRNSWm4lYZNuEG4fOtP0JhibWYvXMBgZIifAQKNRYoE7GQr41Di1XuDXe+Ad72AKGjI6NbmxqHGgaxZje8TF8JiZcCdsAlOMK/XoslPn8/dQWYbo5sbOsyJgYdzX0eL3EMulFzf8evQ5mtK2Zur1pr1R9QpbI3jYtAcuIAAC6JZ8UZ3k/N6IdYWH+SH/E9Bu46OeF9RkbfxP5Xq6Vw7rtqQa6WncPH++euzpbsuc4XuYHTrCIJkglWn3cg5DS5LPydM52B5kacN5EC8mxmk5PMFroFm/hDJ9/qWrZ2t9LCm9fPATUI26Vo6Uh+hq7ZXsi/Qv13tv435eHQBDsM8xMRUBJivNFKIcERMqFNdx8C6DE9lljOkxHFAj0p6Fo0zSmIup4Me4cSup1QP8xOxeHrAjqOcpAD3xT2872UYoAGWZHQQmUdvHsSJ00USl/Yp2epnPRSbYTEtM2EmWyyUFdMZcXOybnNzzuTRUmHU0LdAxtPUrsKCdc2OxaNf1j/wayL1eXAbxkz6bIcymICnsHfklWtSk/MpD65nW6MmoKRi9inR/CnX2Oq4SHW5K9EmU4kbsEayHfxtg2R3Pe6XZ9vra/4VKhVPFbvi1fFH0U6I5L20a2RxIGsLBzF3GvNC3azjr1fIf2jC0D2AIktRz/wk4wP+6zRGO6d8kv2RYvXQ2nXiw8uJwRAMOEUZ8wgrdOO62CkFAdgZ+67fhsLu3Ke6td/8Ua/L+sUXnZdRb+fF23DqfOnLpkLUCs2FmV+Oc3ku3eXqk9/fCogC1sjRS4+KKFxlYTOUvtVMW7U49i2CRmpkClU+ioT1PYtUaAHpZmv1y2q9Pek5qDOlB72yisVN2LdADrJMGW87740CYZ4IBWawqPPXBeocfYUTXIe0fB+xYBjdoB5Lw+nwWj6mBBO4NPMjAXEcVOMRvj9xDlPNlnefjqSlEbJNLaYowfqUQPmWgSXkFX7aeHBdkCP86V/1gijlb4eRGbeNlPkikAaHjiFUBy/wlDxzPEhxdfDgathBEaybA9KhW5noS++m/fVs+YD86wLWabe5htMHkbVkUgJuA+oCh3ksOLqW6nnhzkLJfkkm3h4GgMM2xp7nbwv7ROay+F0UzyBuWXj70AU/9MQ6UYqZTmsIMBfAWa9YqYDzNkBLyAB5lz/Eooe5qxORysMVUL5KndSgRo9kYhdic01SyGqiRYlI/ZiTZsNKfMci/Z4EZdzabNHTxEiNsFxMwODwBehntiK56dA8HGg11txwNMa8gxPPQEogJrQhK0lYm5hKExgXKkbLdrDDrOSXjmAc25O7R1mFwgnHpRkQAiSu14Vjb8l90m0i366F+L4tJKrcwhE6V6o9iEyrP+zTMgSERbkVbTB0U1+Gbc5kkxENfw2UWAroNAiFnOcHTe1+Ivn0+AIlsBEDi4WU+1zfQaWzrdP8lyBxACALh/iBWERSj1X1CSZcEsaJ9gVl/CbVQEncA5aRkUZQqd1sUGKDtzTdw452DEATenEXzVQysaR9jvP0YSWqnXj+u3J1/LdchiAhq32BIN445bwolrDv1GXIzG36gVjhBX6CvqDdIgA2xzuRuOrwSUvkx/wXXxIH8vgZBhtLMxxDOgGVrfiAtUKKkMqcHI/JBCgyB2kYta/b6ci0XiSjGcCAwC/E0eLyd/r4OduNtIstPyLA/uVbW2ZizhVVRrxnPN9L6AEEceE5mK0SqoGrgcHsTKHLAsN3zojahJls00UeoQIGajdBLKwbrd2JvPDx78ml5LrBEutP1eqYsdBkFjdUgEKAEra5lSRb56dDbJA3tycJJrGsdZQd5tvGTEE8bonTGe3J1PjQb2oEzMeWb2UwUF9ePNYkOS8Pne/z3lsl7XlOs5LzMFQPZEpu2CzyZR95YlKornDS7/94lZ8ee7L4b2EKKAFx/5IyZ/B43+2uhLO7/geJC1A5V87NDx7zgVNm6MZYyON/W3wu+4xvdbJUW+QdcsP94IZJJ893bLxXVv93tSzgjGaJVfehzB5t7BZValH0tvXeHfIZukSsfcJ86r5KqtmiSo8YFRfMGbyi+BUzhMEsXahhYi7Lh2U0lH226pF5YngF2RSaoUN/iHXhkB4QwS03Cy8I2ziPb3xFBrGlwAmlZt+70tmSK0XaKPk2qUnQcyXSIUMuJ28CFbpn6XyFS7zQSLB4+BTW7lxNk1pFR6KwnLhmrnVH01cBnoEdGb2vnUY4ZxBPzBXJLU2PvM0ucCFM5/yEWl8kDk7ZBQeHEkVMQxMjQfqitsY8cYAdw2RvICZ79NiSUeNxLwySVDyTebG2451JoH1DJwj7OJ2v+kjgJqfv+aIsI0UVbZBsn//eX5EK6XOIXKzglayFmGE+jf2fluhMKEGEhisIlHuXw+fBE4+DVNv6f7i85g74ydvcYUBdFWhxQ+FjJOj/VmmY/UvLh2V4P7YBeCfC8THbaZovvoLWvJOKnm7oB+jLalLNA67NBimuvn2PB0fjFpI8eYSG3/f/HneQeY59lqYATDAwRmHEiqC1ffIxRIu+MGOkYfDBxYAOGOPPbFAW0dlGI4depIgn0dyecvu2OHRL0aYeRCjx0uBZ7jUEeHAXFNL3EisJgGfsQYlcgBlUntZJSb4ffXgpcpUocoUjZarscYbs8zEWf+cAA/1zbW+y1Rp1V9xgw06Uk09i3UOP9EfYrhLJV7ymO8g4RB44AGpAJqQzAiP/ZJnZCPcg+teB6yEwqoLzkuue6MsCQJcAar1wrcGzp1GNIZlI4khqD2bZkR/RckApEtg7F4IjmEADGEcU6NrmL4sTl8wm9XptU7FUafbbh4kxoDcrcpiKxDNh8Fd1qaiBQIevQFRqvE/gBfV3iIvqryztOOlIobb1zCEDz6khvGfGL0NAzb0KtzFUy76m+BJYUN04E5qAp5Jp/kbxkFW+BECN1yth+EQfNW1exv3TbRfsbPaaTSS6i+I4n+9q2zTYhZlsUaHiA4vJrmjUDS0Ve3bQYZBJuBNRVy7CRp+/GQoQgn9KEBUpOlS33AYQlwt7kOKwsdj0a/dPMATsnToiGxie8+HYLP2X2yGGlKCQrP/IK6TKuizVRYORd8Ny43dIui+PdX3y4UG0KIvc6pVvI9ky1siqwGzc34c//yqibTZbKLV4KBQawaZ8n1DZPkW8nzOhdjX67kLfNjDw6Xnk4BSopv5adI+x7JAvrGBIml+a0JSw7TD/+E6dk0BMH8KNVMqwo1vuILYJqz48gcbjYitNtNpDZK6XPnDGaOmiELhnXGaQr/PQ9hZmsu5nI0AGRJ4WJbg/OnApATjCpPBudkTUOKhmgtEiUuBIyqT7iJxshGlRmR6JRn/4mTI4nlcabKoI/j9KaL4kehLuwN51jz8wHztkzshF/S9Agw7JE8vyKzAPJbi66fn3NjQgYjkKAoZhCF8kr+lndFRgZRQ9CusJxe/R6m0FNbnEm/Gazo/HBw6Hgqqo6JXx/H7UgX/Q+iAtAJjIAU5BEv5BxdTuJiEJ2xWwEN/cKGgbEGfpZl1UkhIJcHri13QtvEZWd3ZP4m4bC3AWDbJAGDeO4qETPUgCX/5AljrlXz32w5Nrl1dBQ9KeV4bR4BHx58h1RERtpZA6gAK6SpkxV9gunZHpyGcTNF97kpaCsbGlK/3eRrEJXL9Ti9y3Xw5Id5dzSYNUDWLops5yDTD+/m+bWHXiRWC4NMzmgwpWCpF4DaQIw/tfAw92dn4pHFrFzPfcTkbyHVGUQwfkpk8mGCcTu4hiQiy2V2Oe8AOTVOCFB9ai1MOaQt5ijPqIURd6+u6iAKjJs1HiyVIhgLxQInHp1RplhEfsexjN0VsGmVc6lvQlTeVzSB/vo4qabOvrWAgKv6ilkezi7LhRLfVrdbdY8Fre1Vyi610XgySR5eaYK2BLezS3FZOG7n57wwuwUqSDAb4OJbXMzAavaHMwUT6/8aFsDKi2EG1G3sMqx8uH5ebnqELPNgcnO5PX3+2Z+9/0yJotRsymeUtacT/2otrZAoAOx6aahwMOGcEqHcC0hmPlcMO/2Fl+hzoDTiHjVMQu0nf5WErSsioP/DBj7AH/7f3yPJhDaF/BzOf1O0FQI87p3SrxHuFXL3JuerbqeMYnFHaZxdyxi1N3R9wgooCAXoTio4JO6z+urwizJvm0nq3J0WyqWbtH1oR+a3RaZqRxsCEGqYdq+C4aH7gRx1gRYuSl0T9Vm3eXCdon4xi4GRYwOk2f9546IjbHqNcC9WJFNNgaw1MTmI/M+TNOf/P26BtYY569QmTY5y8QEHzJYV2DpYt3OVQAS+KmiLG89huyAuFOmlrIpeKR7WbIF92Xl/jXNW0/PrfsCnT1h35Pb7iUShscMuEH+BbBsE2EJxT09tAEM/Tguf9BbR/Ud9rqawTczMxRWIBIDoOWNvX/XnKd078TCQWby1mavwagm2McTWTkXnEtHrPbAJ/YEMqlYI4lkyZU9bEOarTBoqwelYb7Qei/EHEqTa72sJU1xjqxh1NZTRCWhL5qV64B0v8Wnrkl5bhCCI7sSgWHVmAEA1uks92Yuj59Pe9TbCF7DJxQXWgp4aqxM70o6oBIwR+po4c56GYFynaNhaGo4w8bdVgt4bJCqkyp8DUp/2aq4xsB2juveNW3ecacwggSG9CMlJ5F+KSz4KBx5z5sdowIuCDshIC5l4AONhX2MPPl5P9Sgj1ziKsAibmzGDkEePwN4DGnQbpYt/MZu0OeGUF+szmgDsW/+Gc9QR5SOtWjbolkvV9mBktgOIc48XfYbKOfyZw7E4L7xgZof7gIhnN71H9pqtnbPqX4cQ9ikyZN/wN8Ta6ua8/VZtg3GtXixEVzs0YmELQaXpSmSYBxvU1iGWI3kp877/zhbtsQx5dOsbKJhaa1yrF/PhqLx2taWuImKegiDaSfFF7S1rKDsdYwDo1q9bhTkbppvKopOuBrVR1BJKWOE3pTVVR7Cwf2TCZP0StIaBdAhkHczoYLuocy1cTQv558YbQYuaMjK/X6jBCuf5Yy8aoqm1E0mKs4JEZ0IfxmYY8BHc8nMuTYfW3OpyatyEdZ7HZjUnb3515yutw+YN6nNQ55jLwpJ+DXf7f7McBzRY9dkGrKCO+19uQcQFB7I1Vi5QywE7YMKi+urjtf35Yv+nz1O6lU4rQYTh3BxV4JlSkelx0S4YfSvbFw+RuzPuMqRleQzwFXqApo3dITo8n0i9cdTW2vkb6ulA/oz0Qioue+pp4eS0h/irKiw9YKz1vgZl9yG5RKj2HT3XBgn7hqZR2FA0MEjPrgcYhCmc04zAGgFcU5X8nDdL6I+YS2oOTjuS8ezXLYVauH/hlVd8o+gJgESffdIIxK0TRKNhq+HRcBEo7B0NWZQUYPmYINagpDaWJcf3yYENsZ4p59vqwugFtgwCAkAXdKoCbE6E3SaqeT/fZY354NL2GAW4VicOtYpj6VPnkm0fLiaJdWeRx0a9fJqtGSfFL6Hoc6Ml6M1a/GP72Ax013x5T/R/ERC31PUAmdUuZDfUD6Vvu9MhpvVDnt1XBjwh1rXmXKzEyAMPdM9iIeWjhiZeciHj/iC1uczHxrrX+5NgDaIXAVbZ4MZy5Ry8cJu8lKcMGHBEL+db5X1jRlkASzwD+CB137UVVTRP4neD+fIs3P6PC18HCmJEOc1+WRgygGyGFUgXK0B2/krLVyaKUOdDsO7SH1tokWkVDsvakDSBpLTHmoBBeoykGWe3tydmXzTDArqmStrXNqdQZO5BW/3GTQhZlczzTAoH9G7E96hMOrSs9Zu9KTRa8KMe6UyfZ8uopeemv8jBZC5I+uVE98TwrH5o8+7bn1cayC+sAPp83QV7qiVcERnv2OqOlkJ9iGLUXcDGr0FS/t15mAa9W4cUHkEZ4DfLsZw8qWRkTW9h/ycDeoLeItbV94IceKXdogTmv3p/aqh4MOgsFvD8tzo5+PtRrszysowqgf0Fg1iYG7SkS718zUBGpTWlR+Cd5ioFFJcYh5e5VEEQAwTU0CIAxKNCLYdbyl4BnbJTQztMivIVj27P1Oq18+0XUcgrohJkWD4GitxkeuglUuPkoLMbhqanlwdQwwT6g9o+Q9WJV5Hhh73NpE90gHJmjLq4zsOMUvCRhxDNdS4O1ZTx0L1PIq7daK3za4Q3kBpLcE1KwYUiXewNCdPes9Ceby7pHEMpL+WpX11mq3NTSoSkPyfQbVNCDoU5UlPDbFa32eltNE7DSXrZ74fztl+Z6VHMI2/z8pYEnDyZdbaCVzgwH7wKILn6OUar3rwpRzve8jrqzD8odTmyK4zwKof8ylpdqWOgpYrcQEVDdzLeqAHHxN0KlXLOEGmMjK26cb2F+aXEFPy1gcw4dI5W3Kr/gNarJCZIDlNKdRSPhlX5N1F6e0uCLjRJN56XN8AJzNfmHUNH/u38m2PWfgA1bUyG2/iY/iDTSU/O4dsSkNZoKbv3xiT25Y4+yRIVQEUgMYHKOfW1PGqwpNK10Dm9+dwX0iEW486+3FzGftbK6IIF4mIr+7LrMzkn+k7+hgBeQ/5BYGP2MFEH9ubNHgHvE5olWM5hkAZvQxoRPrWUHo4hRPYFwzvFtHCVYsvJJRWkaCjTwoSLU+11wr3v1AfN5FwwE8j19DoYJR8Oc5kdVs+/vAlC8eerSHXdMC7f8Zb6HrwVHzRryWmAS7cVpUEDuTThwlvfPDn/L4X8AzIsFUygDeK9L5MIdT4WXCkqzaW0qhG6CNfBaUWqCjGZ0aFBeaLRMA1Npn8fbjbGilFd7h5YUyjLsKltO6Vof+oSAb87xfjdCUJkVWTT1xBUEKZZijkRLSGMn33EQf88NViF2R2bHbhwlYEMhQ/pFTwd2PFx6o6TuP7QJA0bXbnpnIHK4+jsm22/drm+W8tR+bkDDuFYBMFciMXZv1Goys17ynhYfBUyGzM7RJk1DaOHHY7GqVxs1fzV24Z9uyxvrxLlC2GNoXECPa+4DaCsbD5KjDdYTEwwGw0uvzus3SpChmVxA6EkeVCCfUsji72SnW0sYeoYovuwX1MT3q0Y+lkwT41iBVy1fQ3pfYDfYRe3JYHSQ+kmbhIHkkrPtWGYNvxVK0A5npGPQM78I/8yWE5Fqgade/x+vUMlBUNuv//3yXgHbkpQUPJhxfObeUGDktVr3X60AqzpT1A0ANQTeYSiTNh+MLwtvYi8hJJiP7+48wxgRmRrUU4ondn6R/VpXd4AjU64h4pWLNy4mRjcO2UXXXyhnQfvPQ5c1b89ddWAbDoaHAiTv/lpFDbWjBuekD0RyJ1mv/JFdSEMNTa/W/wf7LfFJMgI+z3m19dZRUGp2SFVPEhaHYrPY+NDh049rli98UZ1cJU2Y+C8IeD4RuCRYq8kro6nfpXdKgrohCmj6fzw7QUbp7D3jy1sQovLW7A3nl5A+kMIfRsXcb3QV7X0u9DgkweqfncBKPoeIQ8hO50N5X82dC8e9Efj631/B6u+B3h6rWXshJN9hxUHeDSjIMShSlggO37MXLrwNbfCvALjb60dWaAoB1O7i4KF6WG50ZEmA2mYTy7S5+qoqajPOED9MiBXMB3S51+8bF8N5bV8Kciip3PaeeeUBBKdMpRergkpX+sQWF1t6ZvotX4W5C2aMFGRcGX/XBifDiCL3Zd9fAMWe0/XYtPNLPeVDEn+hd9hcLA2ILr3Rbf8A6rIA9ZLm8xV9iIcWMi7QTXX3Dx5GzvXlGXmW3x/4BI9n3eY+cv7PwGIKUlgnyvLhVY+Sr86v7DMvrOQM5fSdOusTfwAONpM+EH2Dp95UjL30Y3ZuwwsZW4QUjOBBxCVKGceH1lN+NoQgcA/FpE/yOUVVphVGY0fyI+QSNbIk0iujHg8qWfJKu+QvQ6Jhw0ThCJ6cNpF/MGpLZA29rivM0UFBtoFxStFKYAOY5J8qeSzzq+12W8uH9Th3zmiazg3UxhHiSFubysCRgGkfqu3mlb1EuO8u4YNlD3dSNzdss98GYITZd3ViEQmI6yb2Q+831BiGAhCh+eJI6nanfIiA3qg6binKnKC54iY3e1H0sOMkUH/mcFm0Y6HX5eFsEx6Z85WB9uXxjlO9wdXgbWPa0+ayK52UmCnbvqNUul2RV/rk6vSFSLT+x6kvam3gzJfUo7CsyK5sfkFee8j7VyDgx7VybINLpdCSnLcEVT3bTaXVQmlk0UVVt8+RNheW+Najy36o2U416xb1t5deNVJY5B/k5ZIPX1YZCxmLH9XbjpVnlCQ1H4xCiDILf30ZKE4wn/7aSPr8DJJYc4ekOuoZ8EsBHtyPzDutlFFetoaIfaumojrZJtXeXzgTsqQ5E9bt/gZeIAa504Q7nrPdKNdApulAI3cEfz87rYQ4XYOgb6W2jt3oWJQRuusKzQEl4+FHLKRIlEdV1Pr0GML1fvASKNkMk3R7kKCLBbeE8hfRtfAkRxbCvqmDcDEd72zHHvLUE7yU4BafM+7CjqH1ZVUcws9vCwdIzCQ0Gkml/JYtEn2XM4r6xvWSaQsq2WJz+VYAufnDhDhwcwGATJ+iAhu6Fdt5SIWsEOdFoACGtJT/4MuNE6BxguU5LnHAQ6QZuyqBh46D2tUVDa8Xse8Q4LhY9HhL+a1Y/dS1oON7Knv+jT0LhiJRPxiutx44eJv7/RTGPnXlcvOJ9jrRnt7J/fd2TS3NjRhI+j8iip8IvL4z/hgteByyKvq7U4SxNiWcTYKfkHPlPZ1QgJIYS73d7DwxPv16UrOAT6MGPC2i31f4uBkBJNlnBcqD2yLGmAbcO2U8gZTtWgukzG2H1vz/ezkC6+eqEtpO5eV+NEAdjdjt+gcHu6nb70XBgHqdg64xGuqjx8aWVvwMsKV1TnIT7xHqerzHA6lVCnazpS0iNM412+s5TofEpqibcEJAq8Z918hq/8n59nUCbuNh3jeiMmYfsDLL4H7E/XLL43WDClnV3dhCUqJvbBuCrN+/loGsrQsnABwFzaqluDXsdgeuBwgh83RoJz9SEKnoKYa9haIh5cenQ/zup6cMApnp4yK269TTSz6gMRhbksOcHDORsIwZodRIuIWxL5Ex41a3kOo3JPBIBpY1TgzhZ/oCfhK3L65Iu81AdP35q0uuQCj4pSgxSDNKAnBum5xq6A9iT+bCpY9vnMRXbFj1eQNfjwxiEv3bYcL61lDWjk8XAsmhy1fPBRRwQXa4b9tE7rlkaCWCLZtDfjNNZ1dxDNG3SlLrQC8/Kz+KyjENdoQJMAAMb6TQjfWI7IG4tmwxoPAxDRtgIx6MG5qqcS8x86oxPa4JfItTKUay4YtQ5kqaE76ubp+vD7q2f5sQOSwmz9SZilIQsrwHy40xIWcCIQhbnjYeaGEtc1ZlgKrVC1w8KYQqD/eIFilmDB1nbud/NeN2/ZgOfKfbgQ0kIJ231QWgLe07/aYtJCS6b5eHBJm9YKItrn/sslJLnhWUyyNXbzxLjpfII/sJNtXDK7V8aTSQxZOJxdOeKvYo6zlUirSNjScAGlaEUOE4hvHAso7vk5IE+e4n8e9uep8Nfu1fDVeYaFdjCCUkcre3QfCv3vZY9zxiKeewyNSsm7Crydd4h65OHHhVappWdqrvgRi5BMbkXw0WQum7qmow+2B/49n2jZ3sl3p8sElB+TXHYP9m7zNC18yrYhvhqyCR17j+yrps1yysOEDQERvO1oLWv2L8eS78DzORxBy66z2crm/LtzrivqjXOOJJ7yF5DTQpo1hPiGE2PtA/+Px87YvraoFiHxCYkFel6gl2tei8jyc+TMGTsU88VifDu7UT8fzVB/6DdU2kltykRwuWZ5/3e04BdLSqvDxggEWBTlo9+hCoOfM73d/k8XQAngweshfxnd8l8cGRxOY08xsOXoWkFRRVlQ/CAAEqCHaGA96IWl0H6PoiCV+zxC+Mw+Qsi18h0V3vuwMe+lgciHLPz9tx1CF/FbdafdFDyP4JnS+GpE59mZXBTq/NID9hLfIzM1t/yQ6mvdIOmuc5O+OyXZD6WE/mtyedQlan9U5QSowYdHAhwAQYVb3kktR7o7Ghs8G1PvxFcJhWH1wG8jwzDeknxDw53TiMyF6jBXZvFg60dtF/ZHSzlaUAegMY3i+Y1e95GIhdARWt2wzmqOMewDj9HPl1GjAe1REUqsUSENrbK8y6KvZxRPRnAh9o+zLERKcu9GV/znXJhfx6TMiPeCaA20/EncPB1o7se0oKTlgpEckVibiStqF6vG1Hiwg4o1SRq4f5F1BmyJlX0gd0iByARpkEo9WyVVr3qtl8lU6/+kKMrLy3fKPlcR3R0t/JAfGHwONuoFkLW47skS+qMj6sJbgptxqtDi9CmSR+vyir35/JTddHExDLv0o7n1+i6qwNHxJFKOPyhtacoUuUQnUGL/MlJ55i6XqQUHOq0EoKOWy9fCXWF+9kmQzgCTilav1tkHC7lAhzvq5bmMfXUhfUo6oSSLmGDzTlNXKJA1AI/Nk5qwdWKLlC5In/L5Sb55IoWjL2EWmgHqUqmKzWavDrerHUuRihQhXHD23eb6l/WB/3Ze6QW6YizXHMtvE6iojFay8JQklNdkPPbeVw2AGcPY1MRupZHm9TEBik1Gq3g6cmVTofFfpAtdvNVrZe8azstQHp9xMogAPzwwZxrpJg7P/WFAFoeZfSu4np7HKCXiTadaE1C/fSyzjGqtlXXSkpFXGODWSMS3iV6sgMlg0ibMG/EKKwPkx5AzV5ItfGLAdKN8MWdH/h1TGi/9wZ5O3w4Ggi0GCX5IyJCKxPP+e08ZN4Ytr5y8ttPBtbzGQSGekpGdIrqd5wXUATPJahoWJZnHHdsfx9QnZ6d5sMk6Y+i0QHqcwwYRfCJv9nHu0/mhL/vsMyDrDq4LIZqv1sy6VPbSZgTZAsiqJsZA4gsK1HTxZjdxPq3EiR8gB/UEleyru7Y2OjwcSBwjLm/iTlgvQyVVoBiz9IrywvbI++ULTwSDeOt1LQQ7XTmNtk1P1XbCx18ASrT9h5LMIgTa6XQWmPUcBaAYuaTm3xgwmsfoo1uKIk+snSuffGSq3rZMbQgyXywwQG2/M5Pjq29kGf87A+dwbOM7VQVihOqeLCfwaFfj/tZXEbHx5KnjatLodevmLVHdjzBeg/EgBRmBECbilDACX+mhChbwMmJQnCwRs02dFNZ+WcICmwEVIslgErVT9WqbgsUDxgeV5M7cKwJLiwfCFOTnIQDcd1MCy81mwOjh8k5GMO6MtWQ77vX63AyF38NVBv8Dx+etAY3yTl99jez2SFkJmNHXxq3sqjB8wTaO4LCMaBxAJGNsDTBRSZkSBnPlu5mg7tnEQFLoyvcYQMxUcYH0GJaPZpDpoWnPlobY0XVE6CeEoR3nlC21KhmEbIGLM6Ejp0ZDuUlg+h8xGPAABNNmifX9mxSw0vFYuvMQrvHNTwifWdGkTp9LxrMZ1LYtt5Oq39UIk7/L0CJVyy3eFukVSTlF5jTXcaAC2cg5xq6BtUz50qZBOoVpd9S8Cq40i9PdmiDLL/A4K0uUB+N/GVvdMU+4cczPtlxT4xeLRupnjLwcfgn02pXM+aSOtDe0xBXV9rRAr8+j/wM9yyZUJ9w+1NyYZWc9h5Ui9H+GvLy2x1sXt0rogZWf0D1mGElM2rBC524vz15sCJKXP9A56xTu4bOhD8XPAP3UhudLR4jKpvQJCzhjWCV+kkKBspZ1gAYiypAEL5pX4v38xTguTUMemRaW+cmm1oH8bfuMdSLkny64tvo+u0iqOWLyFNesKiTuN6Ft0wXk3L05pqC4ASFiNIT/KorcVvoGOcOjCSiceKUCDqSluIXG1HVVzIHBWzsET0/0/gU8eZEg/vFFwR5DEEd/VEaR4RsF5/IvI7rGNK6cTIYLEugjF/VRVjBglaFUqmaq++qd1IKwr+DaNg6Qi2J2eeGvbRbh2x5mfEnehn85OdzfC+AY4vH9iw+GAvsA02LvLA97tF6aDZ4RAIMtQ4Ww4xYes6J7P3UXxkcM+++a5qeOsLoiAgR1FFsAuqf0meOVxq0VbR+HTFbHCwN4VaQh7OoIF4ezw3LE7xPW8NYUNBcytrhS82TAAIrAiCPkZSQL8+tKdRUPJNLPK11W/JyKL9qQcc380uxSW31mN2IIqPf0a21BudtwqtIVmWI6jMB5bVUwq8yHSPby4DeBCYggbt2UFBKYZNECkQxaz0WCoTxquilAno+CiCOKg+CQFTdA8fiUAHVqUkBQbKnzclKKFfTjdpLQyhCh89uPxlLAjkrvH6ACCm5zuXaYWA24k0788eq29iLg9dDLpKqM7rc7VAjuB3TwrQH0AFM3AGaPp16frwinYx+HkI1U8FaWWU+qN2naR0CzPFwdZELZq3JdttadoQ6RXKKNMhaytV01pBUHDOPaEs72CHXOZlPw7dyd+lg+LTYNNh9eifAV+qrbUjj8Hsk5swH7Twcl5+cw+l/8n/kGfD4vRU+q873bpD5mXrIN40KsIHO8mCY8C1R/O2ID6g+H6hFLGhTN4EL3oteQ4rfTiPKWhSYQy7wth2/M0u33FIWVFQfm/21VFACQf1Q8kiEGw86SNyA0EPwixQ4zP8DD+X5Ge+tyW9VBpSKh7Ek2/QR1wBFkvQ5OtR04O28lA/76gGpBwfz9/JCIABkM5ZbxcwZ28PvBAlDeE/73U1ZjAM6RaBDRiF8EnYcoGjkNlQXnCV9LzZhx8yKPBvS0rEGxOa/ntnRcYDCacR8kxYiJU/Y2Ce8xIw4YyLlOepLLdOv3GU8DOiHapP2FY5P/gwxChPciwqa6CTvcCgtyrYKCdQDgHwFkms9uD99zUuFg16rqVQpKXAtHF/4WDQVqwxN/3UxRJMuN5tB3swtsOr57siT+HZUGxDNIRexzNLdNGuHHRFB+sE5umrrrR2oTZd+HUkjzO9EfkyXS77sl/OwxspkpoyTxd9Dj66ejN67mob6+BXaDcp56hL1nfI/jZaoRDR5yPkDMBjhgCc5EyJ+1fIL5O5QHErgOS+HB7nYGe3AhqAoxQ/55jiGIwgHTnTG85Ri6sEigZaST6nlhYf+G6/6lcHqFY1PW3MXttOzRFoT7Cb5Rb5NWPRJ73wA57kdNCceDlZzLHHl5d2YCG8jR642hc1m19dUFDJtU/JNtSM/WBzL/e7gr2szI+XXScEgED/Hz2PTyAfMrMMgKvi+R6lJ+3vScDztgmW9ldmw0EXgMcr0KTB7H+fWbjY8EKnfiUpTicrGQAM5U07U+CmayBKLwCFPKPb8dXwLWxuxR0wVu8NiqJEVz6za2lL8YMMulj/lnNIzGJ0hfolD2/mQkeYTtKrqcFEeZpLRM+F9cwdQ+AYpV5Zcvl7H5sES4iUgFHl7kfzpRKCK8MoQ74rtO9+K06v+hWTc0PN62WRz/rKRmHQBpjPpUwR6dzyKqe2VqZsGgzfSRZ8mnWttIR5Po7+rz5/GmFluYzgH6E31LIBahtlo+5/Hj27moda/fHm2fWSToq/O+Peu1MYL8Yj2hgMB63Cp6xWCPMxTDVPWlXxNDWdWT/dyPXcdLJ9hkx34i6VIRBK7LNoKs1xPyznIRNxTz+J9LzXDUJDbScnD909UWCoVidQWbyvw3dBMWmZfJFmsveVznVXnnKvgCyCfE1xC4FVXU3PBaQg60tNepHztLKMypNioXeypANI5gyouOKAu4h5Uk8baipbo1K64PsWfDwim5UpIYa4NgyLua0dP7RR0pmSGTzuo2rMRnnRW1VgKpNkWj4MAlGYq2Q88or3boWW2Xl8XeU2NUraiHNC9ts7S6KZvTs2aSPwvLNhAZSHnH33kKh8AA/MgZ4JLilifk5wG/4/rdnMWaEqNwk5J2dfsFumdCzC3LAHZlRqXQL+f6yrA0vgjD4imTZUb8u6Njy91XIA58RyUfiJKFE/vb8RjxVxMTkmZTkbTJikZtEewTThDQBBIuaDQ+nD7zrYPN2OUVGuGZ9Q66X9fn8vE0jZlQuJuthz2xCbIlvvyT0vw4Vsy2t3EVArcIhAhBe9Uu84s4t2THe2qGXIlcmRjvKcepYW275w8oDZ9Vr7borRY1+PWe8Bta6cXgFWkBtE23uL2T/EZi4k8kreoEODwU2Wj31uvPEpej5YLe3WPRiMZBi8qeFAsO35MANxExKlWnSq9rbqannbQV3IJa49Vxm0Sw9p4Xqk1HsY6tH0o8YVVhXdJdItUcV03S93HVGX0784p5pmZSgWdMyIk9Q+csJ8vfXunwxVWfv9MLaBDhNqH5JLknD+1P2SIUZT8QpxKo55tBZejXi3J6SZGgVuFn8u9AoC0daVYtqMcp8HbdICPcPl6MnHI81kAGHwAMpzCFG9SReL4PaGSjnGAfgG6WUIrzQrnz0UEDFgpXumsAt/SfAaNx/OK6iar+OG/qhS2ZNUWxycsPkJ57fvFOxVFAwY0Wh4mYrjEGD3MaPRUitsftWJwiNDYePgrfZzB0X9qRapjf7qbr/y4Nr8qIcf2PX/aqwXomltQ06ue5tIIXmO2/c+SBkuMW3tn41sS5ovoo9ek7utjGX0NzeKblln7N6sSkudHMnLTDK5Iku/IBYqDvD7jn86YOefRfwVI7ko6F/d13H0hpJj9tpja4YVLgrxmE5bXTZhzE8vb3Jta09+jmWk373jRZhAaxDHREqdOm0gRqq/5somC3P9FhbL1yoCV8SmyAkZLIBh5/dkQ+bxFOZPvi1uhfR8I3rZdyJRR+93aZjwTyNm50M9/WmfdHshyg7jz4XpvSNuVHoXEKJd5WTkC1t+HgAtAADpLUvv+5e9DmjqSKY9uuoCbLMsfA4Qz9gRrvgO+fdIuVK4eKdj7umQM/ibztIj2b0lwvBJqI62wzNBL9dN2L5EimbUSlDHWj0LTzYGohGK9X/9CMUsKVjJJ/7D5HqlFpYL6tq/Wq1grYvcNKUm+2GXicBiGjIfEtr4YZz4Giqe7W0yJIuSTTUuItULlaUkdlm1jdNEwF8UVuFBxl5ga0LBqqNJlON7jyjFUwL3C2kB6J86xK+oPaJ8oApYSgVZS79Rk8iQeVQNcxqqK8whF5+lV9f7Ncn4EJDMMIx3X2L4/0EcD894csRD410eXyxBrrmEoR8RTrzCUEMyv+Jydpm2yhZXEQqwRr62h9t5FnvR3Xjiwcuxs8dfX4qUhgT3ZFQFRbgebMr5wQOVWj2qlnTobwr0pdq5T5ihr3HUhY6/XV+hBxuSLIKnM2cGHWJNUYmCtEY5Nzga1V2lVXD4n7X7wt6ViQnFH6jGI569HhmnxEfdq+7wgjRZvdRQgOVaZABvZLWGwmtgw+gHdHn54ZRu/vJGxaS0VvZuJkMNbVDQEFoVwRPZbivzG4fyOOQnToN3Ax9W/YyZlWX2IvmY0Lb/mJ2PwTqw3rvFEIPK8RWx46lzwlFr4Eq7H8cW65hwOVfFMu+5MSHCkDHwVowYOIivfCXjG3GglYuyzM6pYN52I/kB0tVonlLtC3WK+f4bF21/TEii0hEYgQqoQMxH8CTcH6r5YnXptYIdzu7JqPTTAvbvNRha4/ooTNFb5k4O2DATb40boWChlocH9qf3otAjJflsjS75r51fla+m+cGzy0tj3nl+CYFeVDGGFEjgecG6Vev4gvy8CqhTLo3KkjanmI97AM3QVUGIi/EItI+AHcg0RLtJAhAwnXsdPioQDmertbJlowrN32W2w/BVMWQfYIulK5Xl24cNK2/vfUx7WDNfO6cjbr3GRdTvj9ZAJNeordlAugPepEtU0paiTBOEN6rwLpocfGri+ORIS2y5utVO4I2VieORMvDaQEJ7AWBUJgQeM56wGIa4grh15AdxhD1ENSW7P+LPtoriJuF8WN7RmqHP5SW86Y6cFADQhtmPKhF2il+iwbYCukQd+FjgD5aEX7plHtEsRz4tyv2itF7KjWhFg/m3g+W6c+HNHtb14f/puWrn+J0kFfJb2uMvuA4rvYwMfu2b1jowinjMzBzCm6tEy648VOhjFUchjzltTg2wfDaoHnUbRf/MNQzAH2rWsWaNf1wKdv8Pm/hgUbLT5DGo7dPGLLpUwKeF4bz+QYnCrh3NB3XEktplpbAJRBgjzQfY+g3WSJl9SrwAExLwZ7z21s4ziXFej5/OvqQAe8eKv+aUTtWl7G1u9XZWFQ6ENyQau3Hw/KfwWT4Iy/L+JDQUuO52hLwFojBQQsuuLbwI295V/ymk+DlfMoro8J1fnMSDB+XwelcJsB0bpch6WLrowRyN7xgA38IzvlDfWqT2zfiEtHMYqJ1SqDoPmNyc1LnC6yo7R3Tuu7nNxYqbGDbgxsPHY9uj/iZ1JIoA3JWISkWVyQ4syzLEFB+iU9H6hGFD3EeYjiTRbFzXQ0oqyuUXBbFmV0hTqmkSVuKE50lp/Knbp7HDzMfBxcm1TBdlMZLAtfIzsE6nEs4LjucvugUDa4ow1pJVciMIHkFZd5i6teoXx6OPhZuVBWAoFMnoS7/BU6Eky/VQS7/I2J28rdCHk1UdxmLtmIwdzehfMZF1BjjPxHx4yCqwo4fwnwhUonO0ephGTPMwFCFewWgEts1jLalv2uWnO+CwxpK0KD2kPK6ZeUnSSCe9Q7DmNBz+yeUzeis8rbZaLFUM4QHeBOi0A50EeiLBEdQx8MIWRAc7tjbYlmRIAWS08oc+y5e4kRdDNZ3mo3mVxBLvJIp1lyqfeBKGC+Gt74dm6Rg1TT3Rt08Bh87FhEAmmbecC7DqG9lDbZF/yBWqj9oJI6rEcD6DajpW1sBD3h2uQUtsUQ0GS0tYeU2yUAk58LmTpH26rbpNVUJROHGxGjBclfd8PFbL3ReqPw2KAdBKAJM6cnUtHoZb9Jp46rYnM0rjjVhGyo/X7KoaG/kCgxHC9GyixVrv7nUBjdqDjEVZAwpjZgiw3OJCMiX0lRXDH5lrVy5GJA1QyU/kRHCTItQNKv4AJ0arRxFO3V+oFbRa+GeNgX+nshKaCsDhp3VXJ5SVa/AQLSvrO2NNEqAoLZ8adPU+1jJ3ImS1Aqcl04aTZ0y/zqFrgYpACN+Jz2euW8NUFHShg8rEusA8BUrViIdGIdFFA6jCtyFEcmRq6xcfuA3FThtMkE6G6fqk41iXYKlzZVWq6Pjtw5JNBPOUxN7AEsUDJpk+UnuKoMO0KDmHoQSv/25G8odGHf64Shomwodv8qr84xr5e1PT3xEu0pIhLakEjDIfHEG3AfrYBlkZCgNKPGYIxxfONEKbT+D1gWgl77PLL0rKXppRfl+y6AFdVpgCt771WjMOZJXAV8kpnISBcINhr16STn4r2vrwZNTwb8yUU46T+HlCDiym01d3qEB7VBq3s/vuATFvGkjWx+rVUiO/wZz2s7DozrIlHBsgbtpzsTSmwvzoFmDRnt0v+OOp4cmXz0v6qFh9ZgDuFVMPA/RW/fC1K8pOR6diNcQE5yDOT2qY4AfqR7ogV0OmclvERRmBYbgXah5b34fayFQ7RIZWfgNM91PTwJF/s3aoyF9iJJs1JAlmkg/B3dmNHMrhfBENWcpARtWfWyI+Xb7hRSmYJqdTkiWLhvZmKRX7w0jr4GvJ3WAZ7jF8/OAgP4uIkxa0StujNTeDag+fCpqx6SsbF4jbCen9thS5FhuIcgZ9gn4DVczYU1y/Hvwo7pKVwGgEy6qm6A97uQr/fmV/EihXizVYnfQB3WZdMdBvxXwU6K5M2F8YQeganZ0cAK7dvf18YW9jDH88Ea4mE0OLgHAibifCpEqwRhGj2iF+SxI5zH4R2GuY0Cq0GvKOrN7AZT2GoiNFajywFqU4A1IbzrVPd8+RBme7b5f0BtqpIx+iCYQhiAD2gW5LmmAffa7HoEODHsegg9bFMQGuDqFOhIm18NPAkG7q8z21n65v6iDtEx3YK6k4JgO7rjU22CNKpGSl75s7Qp5SKf2Y7RDH7jQgvtmnrPAKnAWUQmJS4A0GzsPXel0chvSIhbiFXfLq15ZMQeuPLsHwopNB6q1IfvPFwAjZwhKjnclqvA0FHyguzd9nZMBCXAEAAAAADUbWOEYzqomGJNzHbuCAIeIFTYnJYnU6tLpFKQBLAAAA=;" vertex="1" parent="7">
                    <mxGeometry x="580" y="65" width="314" height="173.79" as="geometry"/>
                </mxCell>
                <mxCell id="10" value="Enter dividend" style="text;html=1;align=center;verticalAlign=middle;resizable=0;points=[];autosize=1;strokeColor=none;fillColor=none;fontSize=15;" vertex="1" parent="1">
                    <mxGeometry x="30" y="148" width="120" height="30" as="geometry"/>
                </mxCell>
            </root>
        </mxGraphModel>
    </diagram>
</mxfile>